<svg width="60" height="60" viewBox="0 0 60 60" fill="none" xmlns="http://www.w3.org/2000/svg">
<g clip-path="url(#clip0_1_2)">
<path d="M22.5 3.075C22.4963 3.075 22.4925 3.075 22.4888 3.075C19.7269 3.075 17.4431 4.49812 16.4156 6.825H15.5156C15.51 6.825 15.5044 6.825 15.4988 6.825C13.1156 6.825 10.8525 7.62187 9.12751 9.07312C7.29751 10.6106 6.28876 12.7312 6.28501 15.0394C6.28313 16.905 7.27125 18.9713 8.20688 20.2725C4.03875 21.7163 1.20563 25.2094 1.20001 29.0625C1.19438 32.8988 4.02563 36.3938 8.20126 37.8506C7.25251 39.1481 6.24376 41.2031 6.24188 43.0369C6.23626 47.5856 10.395 51.2925 15.5175 51.3019H16.4175C17.4356 53.6231 19.725 55.0481 22.5 55.0519C22.5038 55.0519 22.5075 55.0519 22.5131 55.0519C26.2106 55.0519 28.7963 52.4625 28.8019 48.7519V9.375C28.8056 5.67187 26.2163 3.08062 22.5 3.075ZM22.5 34.95C21.8381 34.95 21.3 34.4119 21.3 33.75C21.3 33.0881 21.8381 32.55 22.5 32.55C23.1619 32.55 23.7 33.0881 23.7 33.75C23.7 34.4119 23.1619 34.95 22.5 34.95ZM27.45 25.575H23.175V13.6969C24.2531 13.3987 25.05 12.42 25.05 11.25C25.05 9.84375 23.9063 8.7 22.5 8.7C21.0938 8.7 19.95 9.84375 19.95 11.25C19.95 12.4219 20.7469 13.3987 21.825 13.6969V25.575H18.75H18.7463C17.25 25.575 16.2019 26.6231 16.2 28.125V29.325H11.8219C11.5238 28.2469 10.545 27.45 9.37501 27.45C7.96876 27.45 6.82501 28.5938 6.82501 30C6.82501 31.4063 7.96876 32.55 9.37501 32.55C10.5469 32.55 11.5256 31.7513 11.8219 30.675H16.2V41.6138C15.1219 41.9119 14.325 42.8906 14.325 44.0625C14.325 45.4688 15.4688 46.6125 16.875 46.6125C18.2813 46.6125 19.425 45.4688 19.425 44.0625C19.425 42.8906 18.6281 41.9119 17.55 41.6138V28.125C17.5519 27.3731 17.9981 26.9231 18.7481 26.9231H18.75H27.45V48.7463C27.4444 51.4763 25.7475 53.3588 23.175 53.64V36.1969C24.2531 35.8988 25.05 34.92 25.05 33.7481C25.05 32.3419 23.9063 31.1981 22.5 31.1981C21.0938 31.1981 19.95 32.3419 19.95 33.7481C19.95 34.92 20.7469 35.8988 21.825 36.1969V53.6531C19.7569 53.4394 18.1669 52.2619 17.5125 50.4C17.4169 50.13 17.1619 49.95 16.875 49.95H15.5175C11.7 49.9444 7.58625 47.3006 7.59 43.0388C7.59375 41.2275 8.92876 38.8969 9.85126 37.9781C10.0238 37.8075 10.0894 37.5563 10.0256 37.3219C9.96188 37.0875 9.77813 36.9056 9.54376 36.8456C5.42063 35.7844 2.54438 32.5838 2.55001 29.0625C2.55563 25.545 5.40375 22.3631 9.47813 21.2981H14.4281C14.7263 22.3763 15.705 23.1731 16.875 23.1731C18.2813 23.1731 19.425 22.0294 19.425 20.6231C19.425 19.2169 18.2813 18.075 16.875 18.075C15.7031 18.075 14.7263 18.8719 14.4281 19.95H9.67876C8.78438 18.9356 7.63126 16.7794 7.63313 15.0413C7.63688 13.1363 8.475 11.385 9.9975 10.1062C11.4581 8.87812 13.4644 8.175 15.5025 8.175C15.5063 8.175 15.5119 8.175 15.5175 8.175H16.875C17.16 8.175 17.415 7.995 17.5106 7.72687C18.2456 5.65875 20.1056 4.425 22.4888 4.425C22.4925 4.425 22.4944 4.425 22.4981 4.425C25.4663 4.43062 27.4556 6.41812 27.45 9.375V25.575ZM22.5 12.45C21.8381 12.45 21.3 11.9119 21.3 11.25C21.3 10.5881 21.8381 10.05 22.5 10.05C23.1619 10.05 23.7 10.5881 23.7 11.25C23.7 11.9119 23.1619 12.45 22.5 12.45ZM16.875 42.8625C17.5369 42.8625 18.075 43.4006 18.075 44.0625C18.075 44.7244 17.5369 45.2625 16.875 45.2625C16.2131 45.2625 15.675 44.7244 15.675 44.0625C15.675 43.4006 16.2131 42.8625 16.875 42.8625ZM10.575 30C10.575 30.6619 10.0369 31.2 9.37501 31.2C8.71313 31.2 8.17501 30.6619 8.17501 30C8.17501 29.3381 8.71313 28.8 9.37501 28.8C10.0369 28.8 10.575 29.3381 10.575 30ZM15.675 20.625C15.675 19.9631 16.2131 19.425 16.875 19.425C17.5369 19.425 18.075 19.9631 18.075 20.625C18.075 21.2869 17.5369 21.825 16.875 21.825C16.2131 21.825 15.675 21.2869 15.675 20.625ZM58.8 29.0625C58.8038 25.2263 55.9725 21.7331 51.7988 20.2744C52.7494 18.9769 53.7563 16.9219 53.76 15.0862C53.7638 12.7781 52.7475 10.6519 50.8988 9.09937C49.1794 7.65562 46.8431 6.82687 44.4844 6.82312H43.5844C42.5644 4.50187 40.2769 3.07687 37.5038 3.07312C37.4981 3.07312 37.4944 3.07312 37.4888 3.07312C35.6663 3.07312 34.0988 3.67875 32.955 4.8225C31.8094 5.97187 31.2038 7.54312 31.2 9.375V48.7481C31.1944 52.4531 33.7838 55.0425 37.4981 55.05C37.5038 55.05 37.5075 55.05 37.5113 55.05C40.2731 55.05 42.555 53.625 43.5825 51.3H44.4806C44.4881 51.3 44.4938 51.3 44.4994 51.3C46.8825 51.3 49.1456 50.5013 50.8706 49.0519C52.7025 47.5144 53.7113 45.3956 53.715 43.0856C53.7169 41.22 52.7288 39.1519 51.7931 37.8525C55.9631 36.4088 58.7944 32.9156 58.8 29.0625ZM37.5 23.175C38.1619 23.175 38.7 23.7131 38.7 24.375C38.7 25.0369 38.1619 25.575 37.5 25.575C36.8381 25.575 36.3 25.0369 36.3 24.375C36.3 23.7131 36.8381 23.175 37.5 23.175ZM50.5238 36.825H45.5719C45.2738 35.7469 44.295 34.95 43.1231 34.95C41.7169 34.95 40.5731 36.0938 40.5731 37.5C40.5731 38.9063 41.7169 40.05 43.1231 40.05C44.2931 40.05 45.2738 39.2531 45.5719 38.175H50.3213C51.2138 39.1894 52.3669 41.3456 52.3631 43.0838C52.3613 44.9888 51.5231 46.74 50.0006 48.0169C48.5363 49.2488 46.5038 49.9106 44.4825 49.9481H43.125C42.84 49.9481 42.585 50.13 42.4894 50.3963C41.7525 52.4663 39.8925 53.6981 37.5113 53.6981C37.5075 53.6981 37.5019 53.6981 37.5019 53.6981C36.0375 53.6963 34.7925 53.2256 33.9038 52.3388C33.015 51.4519 32.5463 50.2125 32.55 48.75V32.55H36.8231V44.4263C35.745 44.7244 34.9481 45.7031 34.9481 46.875C34.9481 48.2813 36.0919 49.425 37.4981 49.425C38.9044 49.425 40.0481 48.2813 40.0481 46.875C40.0481 45.705 39.2513 44.7244 38.1731 44.4263V32.55H41.2463H41.2519C42.75 32.55 43.7944 31.5019 43.7981 30V28.8H48.1744C48.4725 29.8781 49.4513 30.675 50.6231 30.675C52.0294 30.675 53.1731 29.5313 53.1731 28.125C53.1731 26.7188 52.0294 25.575 50.6231 25.575C49.4513 25.575 48.4725 26.3719 48.1744 27.45H43.8V16.5094C44.8781 16.2113 45.675 15.2325 45.675 14.0625C45.675 12.6562 44.5313 11.5125 43.125 11.5125C41.7188 11.5125 40.575 12.6562 40.575 14.0625C40.575 15.2325 41.3719 16.2113 42.45 16.5094V30C42.45 30.7519 42.0038 31.2019 41.2538 31.2019H41.25H32.55V9.375C32.5519 7.91062 33.0225 6.66562 33.9094 5.77875C34.6538 5.0325 35.6588 4.60312 36.825 4.47937V21.9263C35.7469 22.2244 34.95 23.2031 34.95 24.3731C34.95 25.7794 36.0938 26.9231 37.5 26.9231C38.9063 26.9231 40.05 25.7794 40.05 24.3731C40.05 23.2031 39.2531 22.2244 38.175 21.9263V4.47C40.2431 4.68562 41.8331 5.86125 42.4875 7.725C42.5831 7.995 42.84 8.175 43.125 8.175H44.4825C46.53 8.17687 48.5513 8.89312 50.0306 10.1344C51.5681 11.4262 52.4138 13.1831 52.41 15.0862C52.4081 16.8975 51.0713 19.2281 50.1506 20.1469C49.9781 20.3175 49.9125 20.5688 49.9744 20.8031C50.0381 21.0375 50.2238 21.2194 50.4581 21.2794C54.5794 22.3425 57.4556 25.5431 57.45 29.0625C57.4463 32.5763 54.6 35.7562 50.5238 36.825ZM44.325 37.5C44.325 38.1619 43.7869 38.7 43.125 38.7C42.4631 38.7 41.925 38.1619 41.925 37.5C41.925 36.8381 42.4631 36.3 43.125 36.3C43.7869 36.3 44.325 36.8381 44.325 37.5ZM37.5 45.675C38.1619 45.675 38.7 46.2131 38.7 46.875C38.7 47.5369 38.1619 48.075 37.5 48.075C36.8381 48.075 36.3 47.5369 36.3 46.875C36.3 46.2131 36.8381 45.675 37.5 45.675ZM43.125 15.2625C42.4631 15.2625 41.925 14.7244 41.925 14.0625C41.925 13.4006 42.4631 12.8625 43.125 12.8625C43.7869 12.8625 44.325 13.4006 44.325 14.0625C44.325 14.7244 43.7869 15.2625 43.125 15.2625ZM49.425 28.125C49.425 27.4631 49.9631 26.925 50.625 26.925C51.2869 26.925 51.825 27.4631 51.825 28.125C51.825 28.7869 51.2869 29.325 50.625 29.325C49.9631 29.325 49.425 28.7869 49.425 28.125Z" fill="#0F766E"/>
</g>
<defs>
<clipPath id="clip0_1_2">
<rect width="60" height="60" fill="white"/>
</clipPath>
</defs>
</svg>
